<?xml version="1.0" encoding="UTF-8" standalone="no"?>
<!DOCTYPE svg PUBLIC "-//W3C//DTD SVG 1.1//EN" "http://www.w3.org/Graphics/SVG/1.1/DTD/svg11.dtd">
<svg width="100%" height="100%" viewBox="0 0 140 160" version="1.1" xmlns="http://www.w3.org/2000/svg" xmlns:xlink="http://www.w3.org/1999/xlink" xml:space="preserve" xmlns:serif="http://www.serif.com/" style="fill-rule:evenodd;clip-rule:evenodd;stroke-linecap:round;stroke-linejoin:round;stroke-miterlimit:10;">
    <g transform="matrix(1,0,0,1,100.138,22.1174)">
        <path d="M0,-7.87C-5.59,-18.272 -15.377,-15.037 -15.377,-15.037C-15.377,-15.037 -37.348,-26.5 -54.437,-12.413C-62.133,-6.07 -62.058,7.908 -61.196,18.63L-0.091,18.63C0.615,12.015 3.148,-2.01 0,-7.87" style="fill-rule:nonzero;"/>
    </g>
    <g transform="matrix(1,0,0,1,123.791,113.66)">
        <path d="M0,-12.053C-12.487,-30.781 -39.653,-29.864 -39.653,-29.864C-39.653,-29.864 -42.524,-54.207 -42.923,-56.329C-49.452,-54.849 -66.107,-50.633 -66.107,-50.633L-68.048,-29.78C-68.048,-29.78 -95.919,-30.996 -108.552,-12.053C-114.926,-2.495 -120.576,23.61 -122.838,44.276L14.285,44.276C12.022,23.61 6.373,-2.495 0,-12.053" style="fill:white;fill-rule:nonzero;"/>
    </g>
    <g transform="matrix(1,0,0,1,123.791,113.66)">
        <path d="M0,-12.053C-12.487,-30.781 -39.653,-29.864 -39.653,-29.864C-39.653,-29.864 -42.524,-54.207 -42.923,-56.329C-49.452,-54.849 -66.107,-50.633 -66.107,-50.633L-68.048,-29.78C-68.048,-29.78 -95.919,-30.996 -108.552,-12.053C-114.926,-2.495 -120.576,23.61 -122.838,44.276L14.285,44.276C12.022,23.61 6.373,-2.495 0,-12.053Z" style="fill:none;fill-rule:nonzero;stroke:black;stroke-width:1.91px;"/>
    </g>
    <g transform="matrix(1,0,0,1,83.6464,60.4525)">
        <path d="M0,18.021C-5.747,19.688 -11.735,21.143 -18.532,18.619C-22.716,17.064 -25.993,14.002 -26.901,13.119L-25.962,2.575C-25.962,2.575 -9.308,-1.642 -2.778,-3.122C-2.28,-0.472 -1.22,7.15 0,18.021" style="fill-rule:nonzero;"/>
    </g>
    <g transform="matrix(1,0,0,1,92.8955,50.9571)">
        <path d="M0,-7.153C0,-7.153 1.279,-10.39 5.672,-10.39C8.961,-10.39 12.134,-7.503 12.134,-3.689C12.134,0.159 9.869,3.237 6.3,3.237C2.607,3.237 0.113,0.637 0.113,0.637L0,-7.153Z" style="fill:white;fill-rule:nonzero;stroke:black;stroke-width:1.27px;"/>
    </g>
    <g transform="matrix(1,0,0,1,95.2041,45.2592)">
        <path d="M0,5.145C0.308,3.359 1.653,1.883 3.212,0.899C3.768,0.549 4.355,0.248 4.968,0" style="fill:none;fill-rule:nonzero;stroke:black;stroke-width:0.64px;"/>
    </g>
    <g transform="matrix(1,0,0,1,96.1699,47.9809)">
        <path d="M0,0.205C0.355,-0.049 0.824,-0.085 1.265,-0.082C2.142,-0.076 3.018,0.05 3.859,0.29" style="fill:none;fill-rule:nonzero;stroke:black;stroke-width:0.64px;"/>
    </g>
    <g transform="matrix(1,0,0,1,46.1342,50.9571)">
        <path d="M0,-7.153C0,-7.153 -1.279,-10.39 -5.672,-10.39C-8.962,-10.39 -12.134,-7.503 -12.134,-3.689C-12.134,0.159 -9.87,3.237 -6.3,3.237C-2.607,3.237 -0.114,0.637 -0.114,0.637L0,-7.153Z" style="fill:white;fill-rule:nonzero;stroke:black;stroke-width:1.27px;"/>
    </g>
    <g transform="matrix(1,0,0,1,43.8247,45.2592)">
        <path d="M0,5.145C-0.307,3.359 -1.653,1.883 -3.211,0.899C-3.767,0.549 -4.355,0.248 -4.967,0" style="fill:none;fill-rule:nonzero;stroke:black;stroke-width:0.64px;"/>
    </g>
    <g transform="matrix(1,0,0,1,42.8593,47.9809)">
        <path d="M0,0.205C-0.356,-0.049 -0.824,-0.085 -1.265,-0.082C-2.142,-0.076 -3.018,0.05 -3.859,0.29" style="fill:none;fill-rule:nonzero;stroke:black;stroke-width:0.64px;"/>
    </g>
    <g transform="matrix(1,0,0,1,91.4199,31.1678)">
        <path d="M0,33.667C-3.21,42.697 -16.535,44.68 -21.905,44.82L-21.937,44.82C-27.307,44.68 -40.633,42.697 -43.842,33.667C-48.068,21.777 -48.563,12.074 -48.055,3.672C-47.68,-2.574 -46.74,-7.397 -46.358,-10.111L-21.937,-11.153L-21.905,-11.153L2.517,-10.111C2.891,-7.448 3.793,-2.771 4.193,3.291C4.74,11.737 4.289,21.593 0,33.667" style="fill:white;fill-rule:nonzero;"/>
    </g>
    <g transform="matrix(1,0,0,1,91.4199,31.1678)">
        <path d="M0,33.667C-3.21,42.697 -16.535,44.68 -21.905,44.82L-21.937,44.82C-27.307,44.68 -40.633,42.697 -43.842,33.667C-48.068,21.777 -48.563,12.074 -48.055,3.672C-47.68,-2.574 -46.74,-7.397 -46.358,-10.111L-21.937,-11.153L-21.905,-11.153L2.517,-10.111C2.891,-7.448 3.793,-2.771 4.193,3.291C4.74,11.737 4.289,21.593 0,33.667Z" style="fill:none;fill-rule:nonzero;stroke:black;stroke-width:1.27px;"/>
    </g>
    <g transform="matrix(1,0,0,1,71.5107,41.0437)">
        <path d="M0,11.274C-0.135,11.518 -3.845,11.678 -4.023,10.827C-4.025,10.819 -4.026,10.812 -4.028,10.804C-4.108,10.403 -2.904,8.461 -2.361,4.792C-2.202,3.718 -2.145,2.63 -2.145,1.544L-2.145,-0.404" style="fill:white;fill-rule:nonzero;stroke:black;stroke-width:0.64px;"/>
    </g>
    <g transform="matrix(0,-1,-1,0,58.183,43.1971)">
        <path d="M-2.212,-2.212C-3.434,-2.212 -4.424,-1.222 -4.424,-0C-4.424,1.222 -3.434,2.212 -2.212,2.212C-0.99,2.212 -0.001,1.222 -0.001,-0C-0.001,-1.222 -0.99,-2.212 -2.212,-2.212" style="fill-rule:nonzero;"/>
    </g>
    <g transform="matrix(0,-1,-1,0,80.8451,43.1971)">
        <path d="M-2.212,-2.212C-3.434,-2.212 -4.424,-1.222 -4.424,-0C-4.424,1.222 -3.434,2.212 -2.212,2.212C-0.99,2.212 -0.001,1.222 -0.001,-0C-0.001,-1.222 -0.99,-2.212 -2.212,-2.212" style="fill-rule:nonzero;"/>
    </g>
    <g transform="matrix(1,0,0,1,52.9609,39.4821)">
        <path d="M0,1.113L0.464,0.616C2.379,-1.432 5.55,-1.658 7.734,0.101C8.514,0.728 7.938,1.981 6.954,1.798C4.922,1.419 2.824,1.639 0.915,2.432C0.099,2.771 -0.604,1.759 0,1.113" style="fill-rule:nonzero;"/>
    </g>
    <g transform="matrix(1,0,0,1,86.0683,39.4821)">
        <path d="M0,1.113L-0.464,0.616C-2.379,-1.432 -5.55,-1.658 -7.734,0.101C-8.514,0.728 -7.937,1.981 -6.954,1.798C-4.922,1.419 -2.823,1.639 -0.914,2.432C-0.099,2.771 0.604,1.759 0,1.113" style="fill-rule:nonzero;"/>
    </g>
    <g transform="matrix(1,0,0,1,-180.485,-82.7721)">
        <clipPath id="_clip1">
            <path d="M195.811,184.382C189.437,193.94 183.788,220.045 181.525,240.711C181.525,240.711 204.517,240.597 204.517,240.514L204.517,175.905C204.517,175.905 200.011,178.084 195.811,184.382Z" clip-rule="nonzero"/>
        </clipPath>
        <g clip-path="url(#_clip1)">
            <g transform="matrix(1,0,0,1,202.114,163.985)">
                <path d="M0,76.121C0.612,72.652 1.863,72.872 2.475,69.403C3.087,65.933 1.835,65.712 2.447,62.243C3.059,58.775 4.311,58.996 4.922,55.528C5.533,52.059 4.282,51.838 4.894,48.369C5.505,44.9 6.757,45.121 7.369,41.652C7.98,38.183 6.729,37.962 7.34,34.493C7.952,31.022 9.204,31.243 9.816,27.773C10.427,24.305 9.176,24.084 9.787,20.616C10.399,17.145 11.651,17.366 12.263,13.894C12.875,10.421 11.624,10.2 12.236,6.726C12.849,3.253 14.1,3.474 14.713,0" style="fill:none;fill-rule:nonzero;stroke:black;stroke-width:1.27px;"/>
            </g>
            <g transform="matrix(1,0,0,1,197.287,164.031)">
                <path d="M0,76.122C0.612,72.652 1.863,72.873 2.475,69.404C3.087,65.934 1.835,65.713 2.447,62.243C3.059,58.775 4.31,58.996 4.922,55.529C5.533,52.06 4.282,51.839 4.894,48.37C5.505,44.9 6.757,45.121 7.369,41.652C7.98,38.183 6.729,37.962 7.34,34.493C7.952,31.023 9.204,31.244 9.815,27.773C10.427,24.306 9.176,24.085 9.787,20.617C10.399,17.145 11.651,17.366 12.263,13.894C12.875,10.421 11.624,10.201 12.236,6.727C12.849,3.253 14.1,3.474 14.713,0" style="fill:none;fill-rule:nonzero;stroke:black;stroke-width:1.27px;"/>
            </g>
            <g transform="matrix(1,0,0,1,192.459,164.078)">
                <path d="M0,76.122C0.612,72.652 1.863,72.873 2.475,69.404C3.087,65.934 1.835,65.713 2.447,62.243C3.059,58.775 4.31,58.996 4.921,55.529C5.533,52.06 4.282,51.839 4.894,48.37C5.505,44.9 6.757,45.121 7.369,41.652C7.98,38.183 6.729,37.962 7.34,34.493C7.952,31.023 9.204,31.244 9.815,27.773C10.427,24.305 9.175,24.084 9.787,20.617C10.399,17.145 11.651,17.366 12.263,13.894C12.875,10.421 11.624,10.201 12.236,6.727C12.849,3.253 14.1,3.474 14.713,0" style="fill:none;fill-rule:nonzero;stroke:black;stroke-width:1.27px;"/>
            </g>
            <g transform="matrix(1,0,0,1,187.631,164.125)">
                <path d="M0,76.122C0.611,72.652 1.863,72.873 2.475,69.404C3.087,65.934 1.835,65.713 2.447,62.243C3.059,58.775 4.31,58.996 4.921,55.529C5.533,52.06 4.282,51.839 4.894,48.37C5.505,44.9 6.757,45.121 7.368,41.652C7.98,38.183 6.729,37.962 7.34,34.493C7.952,31.023 9.204,31.244 9.815,27.773C10.427,24.305 9.175,24.084 9.787,20.617C10.399,17.145 11.651,17.366 12.263,13.895C12.875,10.421 11.624,10.201 12.236,6.727C12.849,3.253 14.1,3.474 14.713,0" style="fill:none;fill-rule:nonzero;stroke:black;stroke-width:1.27px;"/>
            </g>
            <g transform="matrix(1,0,0,1,182.804,164.172)">
                <path d="M0,76.122C0.611,72.652 1.863,72.873 2.475,69.404C3.087,65.934 1.835,65.713 2.447,62.243C3.059,58.775 4.31,58.996 4.921,55.529C5.533,52.06 4.282,51.839 4.893,48.37C5.505,44.9 6.756,45.121 7.368,41.652C7.98,38.183 6.729,37.962 7.34,34.493C7.952,31.023 9.204,31.244 9.815,27.773C10.427,24.306 9.175,24.085 9.787,20.617C10.399,17.145 11.65,17.366 12.263,13.895C12.875,10.421 11.624,10.201 12.236,6.727C12.849,3.253 14.1,3.474 14.712,0" style="fill:none;fill-rule:nonzero;stroke:black;stroke-width:1.27px;"/>
            </g>
        </g>
    </g>
    <g transform="matrix(1,0,0,1,-180.485,-82.7721)">
        <clipPath id="_clip2">
            <path d="M295.483,240.628C295.483,240.711 318.475,240.826 318.475,240.826C316.212,220.159 310.562,194.054 304.188,184.497C299.988,178.2 295.483,176.02 295.483,176.02L295.483,240.628Z" clip-rule="nonzero"/>
        </clipPath>
        <g clip-path="url(#_clip2)">
            <g transform="matrix(1,0,0,1,296.634,163.879)">
                <path d="M0,76.563C-0.611,73.093 0.64,72.873 0.028,69.403C-0.583,65.934 -1.835,66.154 -2.447,62.684C-3.059,59.217 -1.807,58.996 -2.418,55.528C-3.03,52.059 -4.281,52.28 -4.894,48.811C-5.505,45.342 -4.253,45.121 -4.865,41.652C-5.477,38.183 -6.729,38.403 -7.34,34.934C-7.952,31.464 -6.7,31.243 -7.312,27.773C-7.924,24.305 -9.176,24.526 -9.787,21.058C-10.398,17.586 -9.147,17.366 -9.76,13.895C-10.372,10.421 -11.623,10.642 -12.236,7.168C-12.849,3.694 -11.597,3.474 -12.209,0" style="fill:none;fill-rule:nonzero;stroke:black;stroke-width:1.27px;"/>
            </g>
            <g transform="matrix(1,0,0,1,301.462,163.926)">
                <path d="M0,76.563C-0.612,73.094 0.64,72.873 0.028,69.403C-0.584,65.934 -1.836,66.154 -2.447,62.684C-3.059,59.216 -1.807,58.996 -2.419,55.528C-3.03,52.059 -4.282,52.28 -4.894,48.811C-5.505,45.341 -4.254,45.121 -4.865,41.652C-5.478,38.183 -6.729,38.403 -7.341,34.934C-7.952,31.464 -6.701,31.243 -7.312,27.773C-7.924,24.305 -9.176,24.526 -9.787,21.058C-10.399,17.586 -9.147,17.366 -9.76,13.895C-10.372,10.421 -11.624,10.642 -12.236,7.168C-12.849,3.694 -11.598,3.474 -12.21,0" style="fill:none;fill-rule:nonzero;stroke:black;stroke-width:1.27px;"/>
            </g>
            <g transform="matrix(1,0,0,1,306.289,163.973)">
                <path d="M0,76.563C-0.611,73.093 0.641,72.873 0.028,69.403C-0.583,65.934 -1.835,66.154 -2.446,62.684C-3.059,59.216 -1.807,58.996 -2.418,55.528C-3.029,52.059 -4.281,52.28 -4.893,48.811C-5.505,45.341 -4.253,45.121 -4.865,41.652C-5.477,38.183 -6.729,38.403 -7.34,34.934C-7.952,31.464 -6.7,31.243 -7.312,27.773C-7.924,24.305 -9.175,24.526 -9.787,21.058C-10.398,17.586 -9.147,17.366 -9.759,13.895C-10.372,10.421 -11.623,10.642 -12.236,7.168C-12.849,3.694 -11.597,3.474 -12.209,0" style="fill:none;fill-rule:nonzero;stroke:black;stroke-width:1.27px;"/>
            </g>
            <g transform="matrix(1,0,0,1,311.117,164.02)">
                <path d="M0,76.563C-0.611,73.093 0.64,72.873 0.028,69.403C-0.584,65.934 -1.835,66.154 -2.447,62.684C-3.059,59.217 -1.807,58.996 -2.419,55.528C-3.03,52.059 -4.282,52.28 -4.894,48.811C-5.505,45.342 -4.254,45.121 -4.865,41.652C-5.477,38.183 -6.729,38.403 -7.34,34.934C-7.952,31.464 -6.7,31.243 -7.312,27.773C-7.924,24.305 -9.176,24.526 -9.787,21.058C-10.399,17.586 -9.147,17.366 -9.76,13.895C-10.372,10.421 -11.624,10.642 -12.236,7.168C-12.849,3.694 -11.597,3.474 -12.21,0" style="fill:none;fill-rule:nonzero;stroke:black;stroke-width:1.27px;"/>
            </g>
            <g transform="matrix(1,0,0,1,315.945,164.066)">
                <path d="M0,76.563C-0.612,73.093 0.64,72.873 0.027,69.403C-0.584,65.934 -1.836,66.154 -2.447,62.684C-3.06,59.217 -1.808,58.996 -2.419,55.528C-3.03,52.059 -4.282,52.28 -4.894,48.811C-5.506,45.342 -4.254,45.121 -4.865,41.652C-5.478,38.183 -6.729,38.403 -7.341,34.934C-7.952,31.464 -6.701,31.243 -7.312,27.773C-7.925,24.305 -9.176,24.526 -9.787,21.058C-10.399,17.586 -9.148,17.366 -9.76,13.895C-10.372,10.421 -11.624,10.642 -12.236,7.168C-12.849,3.694 -11.598,3.474 -12.21,0" style="fill:none;fill-rule:nonzero;stroke:black;stroke-width:1.27px;"/>
            </g>
        </g>
    </g>
    <g transform="matrix(0,-1,-1,0,53.6705,47.6246)">
        <path d="M-5.118,-5.118C-7.944,-5.118 -10.235,-2.826 -10.235,0C-10.235,2.827 -7.944,5.118 -5.118,5.118C-2.29,5.118 0,2.827 0,0C0,-2.826 -2.29,-5.118 -5.118,-5.118" style="fill:rgb(230,230,230);fill-rule:nonzero;"/>
    </g>
    <g transform="matrix(0,-1,-1,0,85.359,47.6246)">
        <path d="M-5.118,-5.118C-7.944,-5.118 -10.235,-2.826 -10.235,0C-10.235,2.827 -7.944,5.118 -5.118,5.118C-2.29,5.118 0,2.827 0,0C0,-2.826 -2.29,-5.118 -5.118,-5.118" style="fill:rgb(230,230,230);fill-rule:nonzero;"/>
    </g>
    <g transform="matrix(1,0,0,1,23.9443,149.352)">
        <path d="M0,-56.222L0,8.393C0,9.117 91.141,8.393 91.141,8.393L91.141,-56.384C91.141,-56.384 84.58,-60.819 77.923,-62.8C71.271,-64.778 60.678,-65.339 60.678,-65.339L48.877,-54.785C47.008,-53.114 44.161,-53.187 42.381,-54.952L31.901,-65.339C31.901,-65.339 21.986,-65.238 13.908,-63.104C5.333,-60.839 0,-56.222 0,-56.222Z" style="fill-rule:nonzero;stroke:black;stroke-width:1.91px;"/>
    </g>
    <g transform="matrix(1,0,0,1,83.7646,40.5518)">
        <path d="M0,-22.651C-3.05,-16.016 -9.481,-11.371 -16.425,-9.108C-23.368,-6.844 -30.822,-6.711 -38.112,-7.141C-37.992,-4.851 -38.298,-1.303 -40.051,-0.051C-41.092,0.692 -42.029,0.631 -43.167,0.045L-38.096,-23.343L0,-22.651Z" style="fill-rule:nonzero;"/>
    </g>
    <g transform="matrix(1,0,0,1,95.8603,17.1928)">
        <path d="M0,23.85C-2.2,22.005 -2.154,18.7 -2.72,15.885C-3.871,10.166 -8.521,5.304 -14.182,3.898L-14.182,0L0.87,0L0,23.85Z" style="fill-rule:nonzero;"/>
    </g>
    <g transform="matrix(1,0,0,1,82.6669,9.79671)">
        <path d="M0,-8.06C0.036,-8.705 0.045,-9.73 0.687,-9.795C1.583,-9.885 2.626,-6.402 2.516,-4.703C2.911,-6.183 3.975,-7.731 5.358,-8.389C6.629,-8.994 5.59,-5.327 4.847,-4.03C4.011,-2.568 2.31,1.825 0.825,-1.095C-0.136,-2.985 -0.114,-6.004 0,-8.06" style="fill-rule:nonzero;"/>
    </g>
    <g transform="matrix(1,0,0,1,45.5839,32.3614)">
        <path d="M0,-0.051L0.006,0C0.014,-0.026 0.014,-0.044 0,-0.051" style="fill-rule:nonzero;"/>
    </g>
    <g transform="matrix(1,0,0,1,93.7597,32.3107)">
        <path d="M0,0.051L0.007,0C-0.007,0.007 -0.008,0.025 0,0.051" style="fill-rule:nonzero;"/>
    </g>
    <g transform="matrix(0.999826,-0.018677,-0.018677,-0.999826,65.6441,57.7425)">
        <path d="M0.015,0.077C2.413,-1.6 5.862,-1.601 8.26,0.077" style="fill:none;fill-rule:nonzero;stroke:black;stroke-width:0.64px;"/>
    </g>
    <g transform="matrix(1,0,0,1,55.5175,97.2229)">
        <path d="M0,-17.035L-6.666,-13.592L-4.48,-6.807C-3.123,-2.593 1.106,0 5.478,-0.703L13.359,-1.868L0,-17.035Z" style="fill:white;fill-rule:nonzero;stroke:black;stroke-width:1.27px;"/>
    </g>
    <g transform="matrix(1,0,0,1,83.5117,97.2229)">
        <path d="M0,-17.035L6.665,-13.592L4.48,-6.807C3.123,-2.593 -1.106,0 -5.478,-0.703L-13.359,-1.868L0,-17.035Z" style="fill:white;fill-rule:nonzero;stroke:black;stroke-width:1.27px;"/>
    </g>
    <g transform="matrix(1,0,0,1,-180.485,-82.7721)">
        <clipPath id="_clip3">
            <path d="M250.638,178.128L258.52,179.292C262.891,179.994 267.12,177.402 268.477,173.188L270.662,166.402L263.997,162.96L250.638,178.128Z" clip-rule="nonzero"/>
        </clipPath>
        <g clip-path="url(#_clip3)">
            <g transform="matrix(1,0,0,1,265.573,202.293)">
                <path d="M0,-76.563C0.611,-73.094 -0.641,-72.873 -0.028,-69.403C0.583,-65.934 1.835,-66.154 2.446,-62.685C3.059,-59.217 1.807,-58.996 2.418,-55.528C3.029,-52.059 4.281,-52.28 4.893,-48.811C5.505,-45.342 4.253,-45.121 4.865,-41.652C5.477,-38.183 6.729,-38.403 7.34,-34.934C7.951,-31.464 6.7,-31.244 7.312,-27.773C7.924,-24.305 9.175,-24.526 9.787,-21.058C10.398,-17.586 9.147,-17.366 9.759,-13.895C10.372,-10.421 11.623,-10.642 12.235,-7.168C12.849,-3.694 11.597,-3.474 12.209,0" style="fill:none;fill-rule:nonzero;stroke:black;stroke-width:1.27px;"/>
            </g>
            <g transform="matrix(1,0,0,1,260.745,202.246)">
                <path d="M0,-76.563C0.611,-73.094 -0.64,-72.873 -0.028,-69.403C0.584,-65.934 1.835,-66.154 2.447,-62.684C3.059,-59.217 1.807,-58.996 2.418,-55.528C3.03,-52.059 4.282,-52.28 4.894,-48.811C5.505,-45.342 4.254,-45.121 4.865,-41.652C5.477,-38.183 6.729,-38.403 7.34,-34.934C7.952,-31.464 6.7,-31.244 7.312,-27.773C7.924,-24.305 9.176,-24.526 9.787,-21.058C10.399,-17.586 9.147,-17.366 9.76,-13.895C10.372,-10.421 11.624,-10.642 12.236,-7.168C12.849,-3.694 11.597,-3.474 12.21,0" style="fill:none;fill-rule:nonzero;stroke:black;stroke-width:1.27px;"/>
            </g>
            <g transform="matrix(1,0,0,1,255.917,202.199)">
                <path d="M0,-76.563C0.612,-73.094 -0.64,-72.873 -0.027,-69.403C0.584,-65.934 1.836,-66.154 2.447,-62.685C3.059,-59.217 1.808,-58.996 2.419,-55.528C3.03,-52.06 4.282,-52.28 4.894,-48.811C5.506,-45.342 4.254,-45.121 4.865,-41.652C5.478,-38.183 6.729,-38.403 7.341,-34.934C7.952,-31.464 6.701,-31.244 7.312,-27.773C7.924,-24.305 9.176,-24.526 9.787,-21.058C10.399,-17.586 9.147,-17.366 9.76,-13.895C10.372,-10.421 11.624,-10.642 12.236,-7.168C12.849,-3.694 11.598,-3.474 12.21,0" style="fill:none;fill-rule:nonzero;stroke:black;stroke-width:1.27px;"/>
            </g>
            <g transform="matrix(1,0,0,1,251.09,202.152)">
                <path d="M0,-76.563C0.611,-73.094 -0.64,-72.873 -0.028,-69.403C0.584,-65.934 1.835,-66.154 2.447,-62.685C3.059,-59.217 1.807,-58.996 2.418,-55.528C3.03,-52.059 4.281,-52.28 4.894,-48.811C5.505,-45.342 4.253,-45.121 4.865,-41.652C5.477,-38.183 6.729,-38.403 7.34,-34.934C7.952,-31.464 6.7,-31.244 7.312,-27.773C7.924,-24.305 9.176,-24.526 9.787,-21.058C10.399,-17.586 9.147,-17.366 9.76,-13.895C10.372,-10.421 11.624,-10.642 12.236,-7.168C12.849,-3.694 11.597,-3.474 12.209,0" style="fill:none;fill-rule:nonzero;stroke:black;stroke-width:1.27px;"/>
            </g>
            <g transform="matrix(1,0,0,1,246.262,202.105)">
                <path d="M0,-76.563C0.611,-73.094 -0.64,-72.873 -0.028,-69.404C0.583,-65.934 1.835,-66.154 2.447,-62.685C3.059,-59.217 1.807,-58.996 2.418,-55.528C3.03,-52.059 4.281,-52.28 4.893,-48.811C5.505,-45.342 4.253,-45.121 4.865,-41.652C5.477,-38.183 6.728,-38.403 7.34,-34.934C7.952,-31.464 6.701,-31.244 7.312,-27.773C7.923,-24.305 9.175,-24.526 9.787,-21.058C10.399,-17.586 9.147,-17.366 9.759,-13.895C10.372,-10.421 11.624,-10.642 12.236,-7.168C12.848,-3.694 11.597,-3.474 12.209,0" style="fill:none;fill-rule:nonzero;stroke:black;stroke-width:1.27px;"/>
            </g>
        </g>
    </g>
    <g transform="matrix(1,0,0,1,-180.485,-82.7721)">
        <clipPath id="_clip4">
            <path d="M229.348,166.402L231.533,173.188C232.89,177.402 237.119,179.994 241.49,179.292L249.372,178.128L236.012,162.96L229.348,166.402Z" clip-rule="nonzero"/>
        </clipPath>
        <g clip-path="url(#_clip4)">
            <g transform="matrix(1,0,0,1,235.689,202.072)">
                <path d="M0,-76.122C-0.612,-72.653 -1.864,-72.873 -2.476,-69.404C-3.087,-65.934 -1.835,-65.713 -2.447,-62.244C-3.059,-58.776 -4.311,-58.997 -4.922,-55.529C-5.534,-52.06 -4.282,-51.839 -4.894,-48.37C-5.505,-44.901 -6.757,-45.122 -7.369,-41.652C-7.98,-38.183 -6.729,-37.962 -7.34,-34.493C-7.952,-31.023 -9.204,-31.244 -9.816,-27.774C-10.427,-24.306 -9.176,-24.085 -9.787,-20.617C-10.399,-17.145 -11.651,-17.366 -12.263,-13.895C-12.875,-10.421 -11.624,-10.201 -12.236,-6.727C-12.849,-3.253 -14.101,-3.474 -14.713,0" style="fill:none;fill-rule:nonzero;stroke:black;stroke-width:1.27px;"/>
            </g>
            <g transform="matrix(1,0,0,1,240.517,202.025)">
                <path d="M0,-76.122C-0.612,-72.653 -1.863,-72.873 -2.475,-69.404C-3.087,-65.934 -1.835,-65.713 -2.447,-62.243C-3.059,-58.776 -4.311,-58.997 -4.922,-55.529C-5.534,-52.06 -4.282,-51.839 -4.894,-48.37C-5.505,-44.901 -6.757,-45.122 -7.369,-41.652C-7.98,-38.183 -6.729,-37.962 -7.34,-34.493C-7.952,-31.023 -9.204,-31.244 -9.816,-27.774C-10.427,-24.306 -9.176,-24.085 -9.787,-20.617C-10.399,-17.145 -11.651,-17.366 -12.263,-13.895C-12.875,-10.421 -11.624,-10.201 -12.236,-6.727C-12.849,-3.253 -14.101,-3.474 -14.713,0" style="fill:none;fill-rule:nonzero;stroke:black;stroke-width:1.27px;"/>
            </g>
            <g transform="matrix(1,0,0,1,245.344,201.978)">
                <path d="M0,-76.122C-0.612,-72.653 -1.863,-72.873 -2.475,-69.404C-3.087,-65.934 -1.835,-65.713 -2.447,-62.244C-3.059,-58.776 -4.311,-58.997 -4.922,-55.529C-5.533,-52.06 -4.282,-51.839 -4.894,-48.37C-5.505,-44.901 -6.757,-45.122 -7.369,-41.652C-7.98,-38.183 -6.729,-37.962 -7.34,-34.493C-7.952,-31.023 -9.204,-31.244 -9.816,-27.774C-10.427,-24.306 -9.176,-24.085 -9.787,-20.617C-10.399,-17.145 -11.651,-17.366 -12.263,-13.895C-12.875,-10.421 -11.624,-10.201 -12.236,-6.727C-12.849,-3.253 -14.101,-3.474 -14.713,0" style="fill:none;fill-rule:nonzero;stroke:black;stroke-width:1.27px;"/>
            </g>
            <g transform="matrix(1,0,0,1,250.172,201.932)">
                <path d="M0,-76.122C-0.612,-72.653 -1.863,-72.873 -2.475,-69.404C-3.087,-65.934 -1.835,-65.713 -2.447,-62.244C-3.059,-58.776 -4.31,-58.997 -4.922,-55.529C-5.533,-52.06 -4.282,-51.839 -4.894,-48.37C-5.505,-44.901 -6.757,-45.122 -7.369,-41.652C-7.98,-38.183 -6.729,-37.962 -7.34,-34.493C-7.952,-31.023 -9.204,-31.244 -9.816,-27.774C-10.427,-24.306 -9.176,-24.085 -9.787,-20.617C-10.399,-17.145 -11.651,-17.366 -12.263,-13.895C-12.875,-10.421 -11.624,-10.201 -12.236,-6.727C-12.849,-3.253 -14.101,-3.474 -14.713,0" style="fill:none;fill-rule:nonzero;stroke:black;stroke-width:1.27px;"/>
            </g>
            <g transform="matrix(1,0,0,1,255,201.885)">
                <path d="M0,-76.122C-0.612,-72.653 -1.864,-72.873 -2.476,-69.404C-3.088,-65.934 -1.836,-65.713 -2.447,-62.244C-3.059,-58.776 -4.311,-58.997 -4.922,-55.529C-5.534,-52.06 -4.282,-51.839 -4.894,-48.37C-5.505,-44.901 -6.757,-45.122 -7.369,-41.652C-7.98,-38.183 -6.729,-37.962 -7.341,-34.493C-7.953,-31.023 -9.204,-31.244 -9.816,-27.774C-10.428,-24.306 -9.176,-24.085 -9.788,-20.617C-10.399,-17.145 -11.651,-17.366 -12.263,-13.895C-12.876,-10.421 -11.624,-10.201 -12.237,-6.727C-12.849,-3.253 -14.101,-3.474 -14.713,0" style="fill:none;fill-rule:nonzero;stroke:black;stroke-width:1.27px;"/>
            </g>
        </g>
    </g>
</svg>
